<svg width="56" height="56" viewBox="0 0 56 56" fill="none" xmlns="http://www.w3.org/2000/svg">
<rect x="0.407227" y="0.69873" width="55.0279" height="55.0279" rx="27.5139" fill="#FE9B64" fill-opacity="0.54"/>
<path d="M15.3501 15.6416H17.62C19.0289 15.6416 20.1378 16.8548 20.0204 18.2507L18.9376 31.2439C18.7549 33.3703 20.4378 35.1966 22.5772 35.1966H36.4706C38.3491 35.1966 39.9929 33.6573 40.1364 31.7918L40.8408 22.0078C40.9974 19.8422 39.3536 18.0811 37.1751 18.0811H20.3335" stroke="#F26414" stroke-width="1.95681" stroke-miterlimit="10" stroke-linecap="round" stroke-linejoin="round"/>
<path d="M33.9398 41.7323C34.8404 41.7323 35.5704 41.0022 35.5704 40.1016C35.5704 39.201 34.8404 38.4709 33.9398 38.4709C33.0392 38.4709 32.3091 39.201 32.3091 40.1016C32.3091 41.0022 33.0392 41.7323 33.9398 41.7323Z" stroke="#F26414" stroke-width="1.95681" stroke-miterlimit="10" stroke-linecap="round" stroke-linejoin="round"/>
<path d="M23.5037 41.7323C24.4043 41.7323 25.1344 41.0022 25.1344 40.1016C25.1344 39.201 24.4043 38.4709 23.5037 38.4709C22.6031 38.4709 21.873 39.201 21.873 40.1016C21.873 41.0022 22.6031 41.7323 23.5037 41.7323Z" stroke="#F26414" stroke-width="1.95681" stroke-miterlimit="10" stroke-linecap="round" stroke-linejoin="round"/>
<path d="M24.4819 23.4688H40.1364" stroke="#F26414" stroke-width="1.95681" stroke-miterlimit="10" stroke-linecap="round" stroke-linejoin="round"/>
</svg>
