2<svg width="56" height="56" viewBox="0 0 56 56" fill="none" xmlns="http://www.w3.org/2000/svg">
<rect x="0.666504" y="0.69873" width="55.0279" height="55.0279" rx="27.5139" fill="#FE9B64" fill-opacity="0.54"/>
<path fill-rule="evenodd" clip-rule="evenodd" d="M21.0451 21.0772V20.8972C21.0451 17.6408 23.2497 14.7975 26.4035 13.9865C27.5692 13.6868 28.7918 13.6868 29.9576 13.9865C33.1113 14.7975 35.316 17.6408 35.316 20.8972V21.0772H37.571C38.4291 21.0772 39.1575 21.7066 39.2819 22.5557L39.6104 24.7977C40.2571 29.2118 40.2571 33.6967 39.6104 38.1108C39.298 40.2425 37.5791 41.8905 35.4361 42.1127L34.4915 42.2107C30.2954 42.6458 26.0656 42.6458 21.8696 42.2107L20.9249 42.1127C18.782 41.8905 17.063 40.2425 16.7507 38.1108C16.1039 33.6967 16.1039 29.2118 16.7507 24.7977L17.0792 22.5557C17.2036 21.7066 17.9319 21.0772 18.7901 21.0772H21.0451ZM26.9647 16.1688C27.7623 15.9637 28.5988 15.9637 29.3964 16.1688C31.5542 16.7237 33.0627 18.6691 33.0627 20.8972V21.0772H23.2984V20.8972C23.2984 18.6691 24.8068 16.7237 26.9647 16.1688ZM21.0451 23.3305V26.7105C21.0451 27.3327 21.5495 27.8371 22.1718 27.8371C22.794 27.8371 23.2984 27.3327 23.2984 26.7105V23.3305H33.0627V26.7105C33.0627 27.3327 33.5671 27.8371 34.1893 27.8371C34.8116 27.8371 35.316 27.3327 35.316 26.7105V23.3305H37.1181L37.3809 25.1244C37.9959 29.3219 37.9959 33.5866 37.3809 37.7842C37.218 38.896 36.3214 39.7555 35.2037 39.8714L34.259 39.9694C30.2175 40.3885 26.1435 40.3885 22.102 39.9694L21.1574 39.8714C20.0397 39.7555 19.1431 38.896 18.9802 37.7842C18.3652 33.5866 18.3652 29.3219 18.9802 25.1244L19.243 23.3305H21.0451Z" fill="#F26414"/>
</svg>
